# xmcd CD database file
#
# Track frame offsets:
#	150
#	22171
#	43923
#	63908
#	86330
#	109327
#	132390
#	153639
#	175534
#	196774
#	219493
#	242254
#	265364
#	286510
#	309860
#
# Disc length: 4435 seconds
#
# Revision: 0
# Processed by: cddbd v1.5PL3 Copyright (c) Steve Scherf et al.
# Submitted via: CDex 1.51
#
DISCID=c711510f
DTITLE=30 日で覚える中国語 - 30 日で覚える中国語 1
DYEAR=2002
DGENRE=Speech
TTITLE0=第一課
TTITLE1=第二課
TTITLE2=第三課
TTITLE3=第四課
TTITLE4=第五課
TTITLE5=第六課
TTITLE6=第七課
TTITLE7=第八課
TTITLE8=第九課
TTITLE9=第十課
TTITLE10=第十一課
TTITLE11=第十二課
TTITLE12=第十三課
TTITLE13=第十四課
TTITLE14=第十五課
EXTD=YEAR: 2002
EXTT0=
EXTT1=
EXTT2=
EXTT3=
EXTT4=
EXTT5=
EXTT6=
EXTT7=
EXTT8=
EXTT9=
EXTT10=
EXTT11=
EXTT12=
EXTT13=
EXTT14=
PLAYORDER=
